{"accessors":[{"name":"Node-Mesh_0_positions","componentType":5126,"count":35378,"min":[-10.940999984741211,0,-3],"max":[10.940999984741211,21.881900787353516,3],"type":"VEC3","bufferView":0,"byteOffset":0},{"name":"Node-Mesh_0_normals","componentType":5126,"count":35378,"min":[-1,-1,-1],"max":[1,1,1],"type":"VEC3","bufferView":1,"byteOffset":0},{"name":"Node-Mesh_0_indices","componentType":5123,"count":139674,"min":[0],"max":[35377],"type":"SCALAR","bufferView":2,"byteOffset":0},{"name":"Node-Mesh_1_positions","componentType":5126,"count":28182,"min":[-10.877599716186523,0.07634349912405014,-2.2249999046325684],"max":[10.877599716186523,21.881900787353516,2.4421300888061523],"type":"VEC3","bufferView":0,"byteOffset":424536},{"name":"Node-Mesh_1_normals","componentType":5126,"count":28182,"min":[-1,-1,-1],"max":[1,1,1],"type":"VEC3","bufferView":1,"byteOffset":424536},{"name":"Node-Mesh_1_indices","componentType":5123,"count":47694,"min":[0],"max":[28181],"type":"SCALAR","bufferView":2,"byteOffset":279348}],"asset":{"generator":"obj2gltf","version":"2.0"},"buffers":[{"name":"input","byteLength":1900176,"uri":"data:application/octet-stream;base64,"}],"bufferViews":[{"name":"bufferView_0","buffer":0,"byteLength":762720,"byteOffset":0,"byteStride":12,"target":34962},{"name":"bufferView_1","buffer":0,"byteLength":762720,"byteOffset":762720,"byteStride":12,"target":34962},{"name":"bufferView_3","buffer":0,"byteLength":374736,"byteOffset":1525440,"target":34963}],"materials":[{"name":"Gold 18k #1","pbrMetallicRoughness":{"baseColorFactor":[0.83,0.68,0.31,1],"metallicFactor":1.0,"roughnessFactor":0.4},"emissiveFactor":[0,0,0],"alphaMode":"OPAQUE","doubleSided":false},{"name":"Sapphire","pbrMetallicRoughness":{"baseColorFactor":[1,1,1,0.9],"metallicFactor":1.0,"roughnessFactor":0.4},"emissiveFactor":[0,0,0],"alphaMode":"OPAQUE","doubleSided":false}],"meshes":[{"name":"Node-Mesh","primitives":[{"attributes":{"POSITION":0,"NORMAL":1},"indices":2,"material":0,"mode":4},{"attributes":{"POSITION":3,"NORMAL":4},"indices":5,"material":1,"mode":4}]}],"nodes":[{"name":"Node","mesh":0}],"scene":0,"scenes":[{"nodes":[0]}]}
